<svg xmlns="http://www.w3.org/2000/svg" version="1.1" xmlns:xlink="http://www.w3.org/1999/xlink" xmlns:svgjs="http://svgjs.com/svgjs" width="1440" height="560" preserveAspectRatio="none" viewBox="0 0 1440 560"><g clip-path="url(&quot;#SvgjsClipPath1026&quot;)" fill="none"><rect width="1440" height="560" x="0" y="0" fill="#0e2a47"></rect><circle r="93.335" cx="29.42" cy="26.21" stroke="#067cc1" stroke-opacity="0.25" stroke-width="2"></circle><circle r="93.335" cx="449.54" cy="378.38" stroke="#067cc1" stroke-opacity="0.25" stroke-width="2"></circle><circle r="93.335" cx="783.42" cy="679.04" stroke="#067cc1" stroke-opacity="0.25" stroke-width="2"></circle><circle r="83.545" cx="156.65" cy="147.01" stroke="#067cc1" stroke-opacity="0.25" stroke-width="2"></circle><circle r="117.765" cx="186.62" cy="474.3" stroke="#067cc1" stroke-opacity="0.25" stroke-width="2"></circle><circle r="184.195" cx="168.54" cy="211.65" stroke="#067cc1" stroke-opacity="0.25" stroke-width="2"></circle><circle r="124.37" cx="1061.13" cy="414.25" stroke="#067cc1" stroke-opacity="0.25" stroke-width="2"></circle><circle r="90.095" cx="1325.01" cy="140.45" stroke="#067cc1" stroke-opacity="0.25" stroke-width="2"></circle><circle r="80.3" cx="1314.54" cy="451.11" stroke="#067cc1" stroke-opacity="0.25" stroke-width="2"></circle><circle r="169.855" cx="863.57" cy="172.74" stroke="#067cc1" stroke-opacity="0.25" stroke-width="2"></circle><circle r="83.72" cx="652.88" cy="500.27" stroke="#067cc1" stroke-opacity="0.25" stroke-width="2"></circle><circle r="120.125" cx="1345.56" cy="504.47" stroke="#067cc1" stroke-opacity="0.25" stroke-width="2"></circle><circle r="171.345" cx="64.17" cy="522.24" stroke="#067cc1" stroke-opacity="0.25" stroke-width="2"></circle><circle r="71.875" cx="792.25" cy="482.56" stroke="#067cc1" stroke-opacity="0.25" stroke-width="2"></circle><circle r="95.08" cx="420.75" cy="308.33" stroke="#067cc1" stroke-opacity="0.25" stroke-width="2"></circle><circle r="64.03" cx="1151.52" cy="93.67" stroke="#067cc1" stroke-opacity="0.25" stroke-width="2"></circle><circle r="160.06" cx="1175.09" cy="6.28" stroke="#067cc1" stroke-opacity="0.25" stroke-width="2"></circle><circle r="117.005" cx="1395.37" cy="330.05" stroke="#067cc1" stroke-opacity="0.25" stroke-width="2"></circle><circle r="171.03" cx="1055.75" cy="490.66" stroke="#067cc1" stroke-opacity="0.25" stroke-width="2"></circle><circle r="120.075" cx="319.28" cy="490.44" stroke="#067cc1" stroke-opacity="0.25" stroke-width="2"></circle><circle r="83.375" cx="747.11" cy="66.48" stroke="#067cc1" stroke-opacity="0.25" stroke-width="2"></circle><circle r="149.07" cx="135.42" cy="424.68" stroke="#067cc1" stroke-opacity="0.25" stroke-width="2"></circle><circle r="73.56" cx="1351.29" cy="103.95" stroke="#067cc1" stroke-opacity="0.25" stroke-width="2"></circle><circle r="119.37" cx="1347.16" cy="334.74" stroke="#067cc1" stroke-opacity="0.25" stroke-width="2"></circle><circle r="122.515" cx="154.74" cy="234.46" stroke="#067cc1" stroke-opacity="0.25" stroke-width="2"></circle><circle r="57.315" cx="527.61" cy="231.06" stroke="#067cc1" stroke-opacity="0.25" stroke-width="2"></circle><circle r="141.845" cx="156.76" cy="35.8" stroke="#067cc1" stroke-opacity="0.25" stroke-width="2"></circle><circle r="71.315" cx="717.88" cy="26.76" stroke="#067cc1" stroke-opacity="0.25" stroke-width="2"></circle><circle r="110.36" cx="42.22" cy="536.64" stroke="#067cc1" stroke-opacity="0.25" stroke-width="2"></circle><circle r="153.845" cx="932.6" cy="170.47" stroke="#067cc1" stroke-opacity="0.25" stroke-width="2"></circle><circle r="62.65" cx="987.61" cy="312.27" stroke="#067cc1" stroke-opacity="0.25" stroke-width="2"></circle><circle r="110.94" cx="1428.36" cy="279.16" stroke="#067cc1" stroke-opacity="0.25" stroke-width="2"></circle><circle r="101.245" cx="1173.45" cy="408.61" stroke="#067cc1" stroke-opacity="0.25" stroke-width="2"></circle><circle r="105.605" cx="698.81" cy="82.26" stroke="#067cc1" stroke-opacity="0.25" stroke-width="2"></circle><circle r="48.155" cx="364.79" cy="164.69" stroke="#067cc1" stroke-opacity="0.25" stroke-width="2"></circle><circle r="169.695" cx="361.29" cy="470.18" stroke="#067cc1" stroke-opacity="0.25" stroke-width="2"></circle><circle r="67.235" cx="480.56" cy="451.53" stroke="#067cc1" stroke-opacity="0.25" stroke-width="2"></circle><circle r="163.22" cx="1348.08" cy="111.01" stroke="#067cc1" stroke-opacity="0.25" stroke-width="2"></circle><circle r="137.72" cx="77.81" cy="17.41" stroke="#067cc1" stroke-opacity="0.25" stroke-width="2"></circle><circle r="76.295" cx="462.84" cy="151.93" stroke="#067cc1" stroke-opacity="0.25" stroke-width="2"></circle><circle r="87.26" cx="864.57" cy="151.82" stroke="#067cc1" stroke-opacity="0.25" stroke-width="2"></circle><circle r="177.44" cx="929.97" cy="153.28" stroke="#067cc1" stroke-opacity="0.25" stroke-width="2"></circle><circle r="161.325" cx="569.04" cy="471.54" stroke="#067cc1" stroke-opacity="0.25" stroke-width="2"></circle><circle r="113.54" cx="862.9" cy="471.23" stroke="#067cc1" stroke-opacity="0.25" stroke-width="2"></circle><circle r="130.485" cx="968.59" cy="204.53" stroke="#067cc1" stroke-opacity="0.25" stroke-width="2"></circle><circle r="100.375" cx="516.71" cy="409.99" stroke="#067cc1" stroke-opacity="0.25" stroke-width="2"></circle><circle r="48.46" cx="988.89" cy="226.99" stroke="#067cc1" stroke-opacity="0.25" stroke-width="2"></circle><circle r="136.795" cx="1329.46" cy="327.34" stroke="#067cc1" stroke-opacity="0.25" stroke-width="2"></circle><circle r="179.095" cx="891.39" cy="225.98" stroke="#067cc1" stroke-opacity="0.25" stroke-width="2"></circle><circle r="115.185" cx="1085.57" cy="434.31" stroke="#067cc1" stroke-opacity="0.25" stroke-width="2"></circle><circle r="124.04" cx="290.37" cy="266.1" stroke="#067cc1" stroke-opacity="0.25" stroke-width="2"></circle><circle r="49.225" cx="874.99" cy="90.28" stroke="#067cc1" stroke-opacity="0.25" stroke-width="2"></circle><circle r="113.42" cx="1089.66" cy="510.37" stroke="#067cc1" stroke-opacity="0.25" stroke-width="2"></circle><circle r="98.52" cx="1106.97" cy="64.95" stroke="#067cc1" stroke-opacity="0.25" stroke-width="2"></circle><circle r="92.315" cx="1211.36" cy="69.96" stroke="#067cc1" stroke-opacity="0.25" stroke-width="2"></circle><circle r="110.255" cx="986.24" cy="200.93" stroke="#067cc1" stroke-opacity="0.25" stroke-width="2"></circle><circle r="60.925" cx="1341.11" cy="223.42" stroke="#067cc1" stroke-opacity="0.25" stroke-width="2"></circle><circle r="136.935" cx="1296.66" cy="296.34" stroke="#067cc1" stroke-opacity="0.25" stroke-width="2"></circle><circle r="155.185" cx="488.15" cy="28.35" stroke="#067cc1" stroke-opacity="0.25" stroke-width="2"></circle><circle r="97.31" cx="864.09" cy="308.98" stroke="#067cc1" stroke-opacity="0.25" stroke-width="2"></circle><circle r="54.445" cx="1283.78" cy="23.68" stroke="#067cc1" stroke-opacity="0.25" stroke-width="2"></circle><circle r="116.34" cx="708.68" cy="77.77" stroke="#067cc1" stroke-opacity="0.25" stroke-width="2"></circle><circle r="134.785" cx="1187.52" cy="153.27" stroke="#067cc1" stroke-opacity="0.25" stroke-width="2"></circle><circle r="98.03" cx="747.59" cy="90.24" stroke="#067cc1" stroke-opacity="0.25" stroke-width="2"></circle><circle r="124.22" cx="296.59" cy="290.19" stroke="#067cc1" stroke-opacity="0.25" stroke-width="2"></circle><circle r="179.315" cx="205.42" cy="326.19" stroke="#067cc1" stroke-opacity="0.25" stroke-width="2"></circle><circle r="171.87" cx="792.4" cy="434.15" stroke="#067cc1" stroke-opacity="0.25" stroke-width="2"></circle><circle r="93.345" cx="758.49" cy="325.05" stroke="#067cc1" stroke-opacity="0.25" stroke-width="2"></circle><circle r="175.255" cx="1126.19" cy="221.44" stroke="#067cc1" stroke-opacity="0.25" stroke-width="2"></circle><circle r="71.64" cx="312.4" cy="332.75" stroke="#067cc1" stroke-opacity="0.25" stroke-width="2"></circle><circle r="131.835" cx="1293.01" cy="396.07" stroke="#067cc1" stroke-opacity="0.25" stroke-width="2"></circle><circle r="149.95" cx="984.21" cy="454.76" stroke="#067cc1" stroke-opacity="0.25" stroke-width="2"></circle><circle r="77.14" cx="665.29" cy="503.58" stroke="#067cc1" stroke-opacity="0.25" stroke-width="2"></circle><circle r="148.255" cx="533.81" cy="395.93" stroke="#067cc1" stroke-opacity="0.25" stroke-width="2"></circle><circle r="82.205" cx="1029.38" cy="526.03" stroke="#067cc1" stroke-opacity="0.25" stroke-width="2"></circle><circle r="171.855" cx="1385.48" cy="344.45" stroke="#067cc1" stroke-opacity="0.25" stroke-width="2"></circle><circle r="161.07" cx="120.97" cy="386.78" stroke="#067cc1" stroke-opacity="0.25" stroke-width="2"></circle><circle r="101.03" cx="335.46" cy="262.67" stroke="#067cc1" stroke-opacity="0.25" stroke-width="2"></circle><circle r="175.725" cx="833.95" cy="132.55" stroke="#067cc1" stroke-opacity="0.25" stroke-width="2"></circle><circle r="180.155" cx="1042.76" cy="95.87" stroke="#067cc1" stroke-opacity="0.25" stroke-width="2"></circle><circle r="153.65" cx="597.39" cy="415.58" stroke="#067cc1" stroke-opacity="0.25" stroke-width="2"></circle><circle r="168.295" cx="776.51" cy="430.19" stroke="#067cc1" stroke-opacity="0.25" stroke-width="2"></circle><circle r="185.49" cx="1042.13" cy="230.22" stroke="#067cc1" stroke-opacity="0.25" stroke-width="2"></circle><circle r="136.215" cx="856.28" cy="470.31" stroke="#067cc1" stroke-opacity="0.25" stroke-width="2"></circle><circle r="114.67" cx="198.8" cy="359.8" stroke="#067cc1" stroke-opacity="0.25" stroke-width="2"></circle><circle r="100.5" cx="946.47" cy="498.24" stroke="#067cc1" stroke-opacity="0.25" stroke-width="2"></circle><circle r="130.815" cx="329.94" cy="198.93" stroke="#067cc1" stroke-opacity="0.25" stroke-width="2"></circle><circle r="104.1" cx="1395.79" cy="81.76" stroke="#067cc1" stroke-opacity="0.25" stroke-width="2"></circle><circle r="60.955" cx="670.14" cy="459.99" stroke="#067cc1" stroke-opacity="0.25" stroke-width="2"></circle><circle r="62.86" cx="654.21" cy="473.34" stroke="#067cc1" stroke-opacity="0.25" stroke-width="2"></circle><circle r="50.54" cx="371.54" cy="515.3" stroke="#067cc1" stroke-opacity="0.25" stroke-width="2"></circle><circle r="84.445" cx="596.43" cy="412.94" stroke="#067cc1" stroke-opacity="0.25" stroke-width="2"></circle><circle r="136.7" cx="380.37" cy="467.5" stroke="#067cc1" stroke-opacity="0.25" stroke-width="2"></circle><circle r="80.12" cx="988.74" cy="93.4" stroke="#067cc1" stroke-opacity="0.25" stroke-width="2"></circle><circle r="122.635" cx="846.28" cy="63.49" stroke="#067cc1" stroke-opacity="0.25" stroke-width="2"></circle><circle r="107.695" cx="637.87" cy="112.28" stroke="#067cc1" stroke-opacity="0.25" stroke-width="2"></circle><circle r="184.88" cx="1314.75" cy="410.54" stroke="#067cc1" stroke-opacity="0.25" stroke-width="2"></circle><circle r="143.89" cx="764.38" cy="424.43" stroke="#067cc1" stroke-opacity="0.25" stroke-width="2"></circle><circle r="111.065" cx="503.13" cy="365.19" stroke="#067cc1" stroke-opacity="0.25" stroke-width="2"></circle><circle r="183.145" cx="944.29" cy="381.63" stroke="#067cc1" stroke-opacity="0.25" stroke-width="2"></circle><circle r="114.53" cx="639.32" cy="66.56" stroke="#067cc1" stroke-opacity="0.25" stroke-width="2"></circle><circle r="54.51" cx="1163" cy="180.56" stroke="#067cc1" stroke-opacity="0.25" stroke-width="2"></circle><circle r="114.25" cx="731.51" cy="28.96" stroke="#067cc1" stroke-opacity="0.25" stroke-width="2"></circle><circle r="118.035" cx="764.76" cy="52.53" stroke="#067cc1" stroke-opacity="0.25" stroke-width="2"></circle><circle r="64.885" cx="1434.3" cy="183.63" stroke="#067cc1" stroke-opacity="0.25" stroke-width="2"></circle><circle r="56.82" cx="803.56" cy="354.44" stroke="#067cc1" stroke-opacity="0.25" stroke-width="2"></circle><circle r="77.19" cx="438.75" cy="328.8" stroke="#067cc1" stroke-opacity="0.25" stroke-width="2"></circle><circle r="151.385" cx="22.48" cy="174.99" stroke="#067cc1" stroke-opacity="0.25" stroke-width="2"></circle><circle r="178.985" cx="40.94" cy="252.56" stroke="#067cc1" stroke-opacity="0.25" stroke-width="2"></circle><circle r="180.57" cx="1256.37" cy="268.74" stroke="#067cc1" stroke-opacity="0.25" stroke-width="2"></circle><circle r="126.995" cx="1020.67" cy="368.36" stroke="#067cc1" stroke-opacity="0.25" stroke-width="2"></circle><circle r="96.51" cx="185.68" cy="393.84" stroke="#067cc1" stroke-opacity="0.25" stroke-width="2"></circle><circle r="111.73" cx="1253.69" cy="267.52" stroke="#067cc1" stroke-opacity="0.25" stroke-width="2"></circle><circle r="81.29" cx="850.15" cy="103.42" stroke="#067cc1" stroke-opacity="0.25" stroke-width="2"></circle><circle r="86.745" cx="104.55" cy="239.63" stroke="#067cc1" stroke-opacity="0.25" stroke-width="2"></circle><circle r="58.155" cx="912.12" cy="242.18" stroke="#067cc1" stroke-opacity="0.25" stroke-width="2"></circle><circle r="61.15" cx="629.24" cy="37.85" stroke="#067cc1" stroke-opacity="0.25" stroke-width="2"></circle><circle r="90.895" cx="386.95" cy="98.39" stroke="#067cc1" stroke-opacity="0.25" stroke-width="2"></circle><circle r="80.22" cx="41.34" cy="542.25" stroke="#067cc1" stroke-opacity="0.25" stroke-width="2"></circle><circle r="169.005" cx="1398.54" cy="202.96" stroke="#067cc1" stroke-opacity="0.25" stroke-width="2"></circle><circle r="143.135" cx="973.18" cy="77.26" stroke="#067cc1" stroke-opacity="0.25" stroke-width="2"></circle><circle r="160.04" cx="459.78" cy="104.89" stroke="#067cc1" stroke-opacity="0.25" stroke-width="2"></circle><circle r="78.38" cx="719.49" cy="458.81" stroke="#067cc1" stroke-opacity="0.25" stroke-width="2"></circle><circle r="85.97" cx="389.89" cy="524.49" stroke="#067cc1" stroke-opacity="0.25" stroke-width="2"></circle><circle r="130.255" cx="204.08" cy="320.52" stroke="#067cc1" stroke-opacity="0.25" stroke-width="2"></circle><circle r="179.78" cx="93.33" cy="490.58" stroke="#067cc1" stroke-opacity="0.25" stroke-width="2"></circle><circle r="115.565" cx="388.12" cy="497.79" stroke="#067cc1" stroke-opacity="0.25" stroke-width="2"></circle><circle r="61.48" cx="759.07" cy="145.56" stroke="#067cc1" stroke-opacity="0.25" stroke-width="2"></circle><circle r="57.72" cx="509.7" cy="476.43" stroke="#067cc1" stroke-opacity="0.25" stroke-width="2"></circle><circle r="168.96" cx="405.31" cy="197.15" stroke="#067cc1" stroke-opacity="0.25" stroke-width="2"></circle><circle r="115.18" cx="760.95" cy="258.57" stroke="#067cc1" stroke-opacity="0.25" stroke-width="2"></circle><circle r="175.225" cx="798.47" cy="354.88" stroke="#067cc1" stroke-opacity="0.25" stroke-width="2"></circle><circle r="73.5" cx="510.44" cy="120.86" stroke="#067cc1" stroke-opacity="0.25" stroke-width="2"></circle><circle r="167.625" cx="249.45" cy="254.16" stroke="#067cc1" stroke-opacity="0.25" stroke-width="2"></circle><circle r="169.75" cx="445.87" cy="543.15" stroke="#067cc1" stroke-opacity="0.25" stroke-width="2"></circle><circle r="115.945" cx="1091.94" cy="465.09" stroke="#067cc1" stroke-opacity="0.25" stroke-width="2"></circle><circle r="106.98" cx="1394.9" cy="114.61" stroke="#067cc1" stroke-opacity="0.25" stroke-width="2"></circle><circle r="156.945" cx="734.01" cy="417.74" stroke="#067cc1" stroke-opacity="0.25" stroke-width="2"></circle><circle r="151.19" cx="695.89" cy="159.43" stroke="#067cc1" stroke-opacity="0.25" stroke-width="2"></circle><circle r="156.345" cx="826.72" cy="405.74" stroke="#067cc1" stroke-opacity="0.25" stroke-width="2"></circle><circle r="49.86" cx="779.1" cy="249.26" stroke="#067cc1" stroke-opacity="0.25" stroke-width="2"></circle><circle r="120.91" cx="503.28" cy="337.54" stroke="#067cc1" stroke-opacity="0.25" stroke-width="2"></circle><circle r="140.06" cx="6.88" cy="341.39" stroke="#067cc1" stroke-opacity="0.25" stroke-width="2"></circle><circle r="171.065" cx="111.34" cy="294.64" stroke="#067cc1" stroke-opacity="0.25" stroke-width="2"></circle><circle r="113.765" cx="100.09" cy="468.9" stroke="#067cc1" stroke-opacity="0.25" stroke-width="2"></circle><circle r="167.135" cx="1298.25" cy="109.89" stroke="#067cc1" stroke-opacity="0.25" stroke-width="2"></circle><circle r="140.53" cx="1171.58" cy="11.06" stroke="#067cc1" stroke-opacity="0.25" stroke-width="2"></circle><circle r="54.675" cx="1091.09" cy="427.93" stroke="#067cc1" stroke-opacity="0.25" stroke-width="2"></circle><circle r="156.375" cx="1069.91" cy="86.13" stroke="#067cc1" stroke-opacity="0.25" stroke-width="2"></circle><circle r="142.06" cx="993.85" cy="252.37" stroke="#067cc1" stroke-opacity="0.25" stroke-width="2"></circle></g><defs><clipPath id="SvgjsClipPath1026"><rect width="1440" height="560" x="0" y="0"></rect></clipPath></defs></svg>